<svg width="29" height="30" viewBox="0 0 29 30" fill="none" xmlns="http://www.w3.org/2000/svg">
<path d="M12.692 0.0606079L10.884 4.49399C10.5224 4.60576 10.197 4.79204 9.87157 4.97831L5.56858 3.11555L2.96509 5.79793L4.77307 10.2313C4.59227 10.6039 4.44763 10.9019 4.30299 11.2745L0 13.1372V16.8628L4.30299 18.7255C4.44763 19.0981 4.59227 19.3961 4.77307 19.7687L2.96509 24.2021L5.56858 26.8845L9.87157 25.0217C10.197 25.1707 10.5224 25.357 10.884 25.506L12.692 29.9394H16.308L18.116 25.506C18.4414 25.357 18.803 25.208 19.1284 25.0217L23.4314 26.8845L26.0349 24.2021L24.2269 19.7687C24.3716 19.4334 24.5524 19.0608 24.697 18.7255L29 16.8628V13.1372L24.697 11.2745C24.5885 10.9392 24.4077 10.5666 24.2269 10.2313L26.0349 5.79793L23.4314 3.11555L19.1284 4.97831C18.803 4.82929 18.4414 4.64302 18.116 4.49399L16.308 0.0606079L12.692 0.0606079ZM14.5 9.37444C17.5012 9.37444 19.9239 11.8706 19.9239 14.9627C19.9239 18.0549 17.5012 20.551 14.5 20.551C11.4988 20.551 9.07606 18.0549 9.07606 14.9627C9.07606 11.8706 11.4988 9.37444 14.5 9.37444Z" fill="#141414"/>
</svg>
