<svg width="50" height="50" viewBox="0 0 50 50" fill="none" xmlns="http://www.w3.org/2000/svg">
<path d="M23.3103 0.0758324C19.3948 0.439602 16.4205 1.29258 13.2956 2.94837C11.0617 4.11495 9.51807 5.25644 7.5854 7.13802C5.61509 9.03214 4.15931 10.9639 2.92943 13.3096C-0.835511 20.4094 -0.973558 28.7762 2.52784 35.9262C9.69377 50.5147 28.5687 54.5914 40.9679 44.2177C43.7665 41.8845 45.8372 39.2628 47.4185 36.0516C53.8691 22.9182 47.7824 7.18819 34.1533 1.76925C30.8276 0.439602 26.5105 -0.237766 23.3103 0.0758324ZM29.2715 2.87311C37.8179 4.57907 44.7328 11.0768 46.8286 19.3683C47.3934 21.6262 47.5691 23.2694 47.4938 25.7029C47.3934 29.2779 46.7408 31.8494 45.147 35.0481C43.9673 37.4189 42.9131 38.8489 40.88 40.881C38.9223 42.8378 37.479 43.9166 35.2326 45.0706C31.7187 46.8769 28.3051 47.6296 24.2139 47.4916C21.7667 47.4163 20.0725 47.1153 17.8762 46.3877C11.4884 44.2553 6.36807 39.3381 3.90831 32.9784C2.45254 29.1901 2.08859 24.4736 2.92943 20.3091C3.23062 18.8289 4.03381 16.571 4.79935 15.0281C6.05433 12.5193 7.32186 10.8259 9.58082 8.65583C12.9065 5.45715 17.1233 3.39995 21.842 2.68495C23.5989 2.42153 27.4894 2.50934 29.2715 2.87311Z" fill="#141414"/>
<path d="M18.6673 10.6503C18.5292 10.7883 18.4163 10.9764 18.4163 11.0768C18.4163 11.3402 17.4499 12.2935 16.584 12.8831C16.1573 13.1591 15.6553 13.5855 15.4671 13.8113C14.9525 14.4134 14.5133 15.442 14.438 16.2072C14.3752 16.872 14.3752 16.8846 14.9023 17.3111C15.191 17.5494 15.58 17.9006 15.7557 18.1139C16.7597 19.2428 17.8515 19.9955 18.8304 20.2338C19.1316 20.3091 19.1818 20.284 19.1191 20.0958C18.592 18.3397 18.7175 17.0978 19.5206 16.157C20.0352 15.5549 19.9599 15.4044 19.0689 15.3166C18.6422 15.279 18.3284 15.3292 18.0272 15.4797L17.6005 15.6929L17.9896 15.3292C18.2029 15.1284 18.4288 14.7396 18.5167 14.4134C18.592 14.0998 18.7677 13.4476 18.8932 12.9709C19.0814 12.2308 19.1567 12.0928 19.3575 12.1305C19.4955 12.1555 19.7591 12.1806 19.9599 12.1806C20.3238 12.1932 20.3615 12.2434 20.1732 12.5319C20.0854 12.6573 20.0226 12.6824 19.9599 12.582C19.8469 12.4315 19.2948 12.1179 19.232 12.1806C19.2195 12.2057 19.1693 12.3312 19.1191 12.4817C19.0312 12.7827 19.1693 12.9333 19.7591 13.134C20.2234 13.2845 20.3113 13.2092 20.5497 12.4691C20.6376 12.1932 20.7505 11.9172 20.8133 11.8419C20.9764 11.6789 20.9513 11.7918 20.738 12.4064C20.6376 12.7075 20.5748 12.9709 20.5999 13.0085C20.7254 13.134 20.9011 12.8831 21.0517 12.3437C21.1396 12.0301 21.2651 11.7416 21.3153 11.704C21.4659 11.6162 21.4533 11.6663 21.24 12.281C21.1145 12.6322 21.1019 12.7827 21.2023 12.7577C21.378 12.6949 21.7043 11.7918 21.6541 11.4782C21.629 11.3151 21.3027 11.1395 20.4368 10.8259C19.0689 10.3241 18.9936 10.3241 18.6673 10.6503Z" fill="#141414"/>
<path d="M29.4974 10.9262C28.7569 11.2022 28.4557 11.3778 28.4557 11.5283C28.4557 11.8544 28.8448 12.9081 28.9703 12.9081C29.1209 12.9081 29.1209 12.9081 28.895 12.2809C28.7946 11.9799 28.7318 11.7165 28.7695 11.6788C28.7946 11.6412 28.8573 11.729 28.9075 11.8544C28.9577 11.9799 29.1083 12.3436 29.2338 12.6572C29.535 13.3221 29.6856 13.1465 29.4095 12.4691C29.1836 11.9297 29.1711 11.9046 29.3091 11.9046C29.3719 11.9046 29.5099 12.2182 29.6354 12.5945C29.7484 12.9708 29.8864 13.2844 29.9241 13.2844C29.9617 13.2844 30.2127 13.2217 30.4763 13.1339C30.8904 13.021 30.9657 12.9458 30.9657 12.6322C30.9657 12.2182 30.7022 12.168 30.3508 12.5193C30.0872 12.7827 29.9617 12.7451 29.9617 12.4189C29.9617 12.2935 30.0747 12.2182 30.2504 12.2182C30.401 12.2057 30.652 12.168 30.79 12.1179C31.041 12.0301 31.0787 12.1053 31.3422 13.1841C31.7312 14.7521 31.932 15.2287 32.296 15.4169C32.4591 15.5047 32.5721 15.605 32.547 15.6301C32.5344 15.6552 32.3462 15.5925 32.1454 15.4796C31.5179 15.1535 30.4261 15.304 30.2504 15.7305C30.2127 15.8434 30.288 16.0566 30.4386 16.2072C31.0787 16.8971 31.2794 18.302 30.903 19.6693L30.7273 20.3341L31.154 20.2714C32.0199 20.1334 33.0239 19.5313 33.9149 18.6156C34.4043 18.1264 35.0067 17.5619 35.2703 17.3612C35.6593 17.0727 35.7346 16.9472 35.7346 16.5584C35.7346 16.0817 35.4711 15.1158 35.2326 14.6517C34.9691 14.1625 34.0655 13.2593 33.3502 12.7827C32.5972 12.2684 31.9069 11.5534 31.5681 10.9262C31.292 10.4119 30.8904 10.4119 29.4974 10.9262Z" fill="#141414"/>
<path d="M20.5246 15.9188C19.3073 16.5836 19.0061 18.0763 19.6838 20.0833C20.2611 21.8395 21.9804 23.9217 23.9633 25.289L24.9171 25.9538L25.8332 25.3016C27.0631 24.436 28.5565 22.9308 29.2593 21.8395C30.4389 20.0331 30.8154 17.8505 30.1503 16.7216C29.2718 15.2289 27.1509 15.3668 25.5194 17.0352L24.892 17.6624L24.4904 17.1857C24.2645 16.9223 23.7625 16.4958 23.386 16.2324C22.7836 15.8184 22.5828 15.7557 21.8424 15.7055C21.1647 15.6679 20.9011 15.7181 20.5246 15.9188Z" fill="#141414"/>
<path d="M10.6103 31.3602C10.422 31.4355 10.2338 31.6236 10.171 31.7867C10.1208 31.9498 9.86982 32.2132 9.63137 32.3763L9.19213 32.6773L9.15448 36.1143C9.12938 39.6392 9.17958 40.1033 9.58117 39.5764C9.71922 39.3757 9.75687 38.7109 9.75687 36.1645C9.75687 34.4209 9.80707 32.9658 9.86982 32.9282C9.93257 32.8906 10.0079 33.2794 10.033 33.7937C10.0957 35.0983 10.284 35.2864 11.6393 35.3366C12.8818 35.3993 13.2708 35.3115 13.2708 34.9854C13.2708 34.7596 13.183 34.7345 12.1539 34.7345C10.7483 34.7345 10.6103 34.6342 10.6605 33.6181L10.6981 32.9156L13.2708 32.878C15.8435 32.8529 16.0945 32.8028 15.9439 32.3888C15.8937 32.2634 15.3415 32.2257 13.321 32.2257C10.9993 32.2257 10.3844 32.1505 10.9617 31.9247C11.0746 31.8871 12.2292 31.8494 13.5218 31.8494C15.9063 31.8494 16.22 31.7867 15.9063 31.4104C15.7808 31.2599 15.3039 31.2222 13.3461 31.2348C12.0284 31.2348 10.7985 31.2975 10.6103 31.3602Z" fill="#141414"/>
<path d="M17.4243 31.3853C16.9976 31.5985 16.8972 32.0626 16.9348 33.7937C16.9599 35.5749 16.9976 35.738 17.2862 35.738C17.6251 35.738 17.6627 35.4997 17.6627 33.593C17.6627 32.5142 17.7129 31.8494 17.7882 31.8494C17.8635 31.8494 17.9137 33.2041 17.9137 35.6627C17.9137 38.8489 17.9388 39.5012 18.102 39.6266C18.2024 39.7019 18.3404 39.7395 18.4157 39.6893C18.6165 39.5639 18.5914 31.8368 18.3906 31.5734C18.1522 31.2849 17.7631 31.2097 17.4243 31.3853Z" fill="#141414"/>
<path d="M19.6712 31.4103C19.5959 31.5107 19.5583 31.6487 19.6085 31.7239C19.6587 31.7992 20.989 31.8494 23.4989 31.8494C26.6113 31.8494 27.3141 31.8243 27.3643 31.6738C27.5274 31.2598 27.1886 31.2222 23.4864 31.2222C20.4368 31.2222 19.7967 31.2473 19.6712 31.4103Z" fill="#141414"/>
<path d="M35.9479 31.2975C35.8977 31.3477 35.8601 32.0627 35.8601 32.878V34.3582H34.3541H32.8356L32.8732 35.4495L32.9109 36.5534L34.3541 36.6161L35.7973 36.6788L35.8601 38.1841L35.9228 39.6893H36.9268H37.9308L37.9935 38.1841L38.0563 36.6788L39.5371 36.6412L41.0055 36.6035V35.4871V34.3707L39.5371 34.3331L38.0563 34.2955L37.9935 32.7902L37.9308 31.2849L36.9895 31.2473C36.4625 31.2348 35.9981 31.2473 35.9479 31.2975Z" fill="#141414"/>
<path d="M19.5829 32.4264C19.4574 32.7651 19.7084 32.8403 21.1767 32.878L22.62 32.9156L22.6576 36.2397C22.6827 39.5764 22.7204 39.8273 23.1471 39.6642C23.2726 39.614 23.3102 38.9241 23.3102 36.2146V32.8403L22.9965 32.5393C22.7078 32.2382 22.62 32.2257 21.1767 32.2257C19.9218 32.2257 19.6457 32.2633 19.5829 32.4264Z" fill="#141414"/>
<path d="M24.0135 32.4891L23.6872 32.74V36.177C23.6872 39.6391 23.7248 39.9527 24.1264 39.6266C24.277 39.5012 24.3147 38.8614 24.3398 36.1896L24.3774 32.9156L25.8458 32.878C27.0254 32.8529 27.3141 32.8027 27.3768 32.6522C27.4145 32.5393 27.427 32.4013 27.3768 32.3386C27.3392 32.2759 26.6489 32.2257 25.8332 32.2257C24.5155 32.2257 24.3147 32.2508 24.0135 32.4891Z" fill="#141414"/>
<path d="M10.8983 35.738C10.1453 35.9136 10.07 36.0767 10.0323 37.8454C9.9947 39.175 10.0198 39.4886 10.1829 39.6141C10.5469 39.9151 10.6347 39.6391 10.6347 38.1841C10.6347 37.4063 10.6724 36.6788 10.71 36.5659C10.7728 36.4028 10.9987 36.3652 11.8897 36.3652C12.7682 36.3652 13.0443 36.315 13.2074 36.152C13.4082 35.9513 13.4082 35.9387 13.1949 35.7757C12.9439 35.6 11.6011 35.5749 10.8983 35.738Z" fill="#141414"/>
</svg>
